<?xml version="1.0" standalone="no"?>
<!DOCTYPE svg PUBLIC "-//W3C//DTD SVG 20010904//EN"
 "http://www.w3.org/TR/2001/REC-SVG-20010904/DTD/svg10.dtd">
<svg version="1.0" xmlns="http://www.w3.org/2000/svg"
 width="958.000000pt" height="958.000000pt" viewBox="0 0 958.000000 958.000000"
 preserveAspectRatio="xMidYMid meet">
<metadata>
Created by potrace 1.11, written by Peter Selinger 2001-2013
</metadata>
<g transform="translate(0.000000,958.000000) scale(0.100000,-0.100000)"
fill="#000000" stroke="none">
<path d="M4820 8944 c-884 -60 -1590 -238 -2245 -563 -304 -151 -547 -303
-790 -495 -676 -534 -1165 -1240 -1393 -2011 -148 -502 -196 -1053 -126 -1450
95 -537 383 -1121 916 -1862 616 -856 1264 -1371 2105 -1672 407 -146 968
-241 1411 -241 174 1 196 5 372 75 141 56 155 59 415 101 200 32 366 66 515
105 1103 291 2032 907 2629 1744 487 682 724 1486 681 2310 -27 524 -130 942
-336 1373 -210 439 -454 773 -864 1182 -820 820 -1695 1273 -2670 1386 -123
14 -513 25 -620 18z m475 -150 c760 -49 1538 -372 2230 -925 593 -473 1052
-1024 1312 -1577 285 -608 386 -1345 278 -2034 -100 -637 -369 -1225 -800
-1745 -107 -130 -366 -391 -490 -495 -507 -424 -1084 -729 -1733 -917 -213
-62 -349 -92 -635 -142 -173 -29 -263 -50 -361 -84 -205 -70 -248 -78 -437
-77 -329 1 -691 49 -1009 133 -894 236 -1613 738 -2234 1559 -507 671 -828
1264 -952 1760 -84 339 -94 653 -33 1075 176 1230 1001 2326 2204 2927 781
391 1801 599 2660 542z"/>
<path d="M5215 8279 c-82 -12 -202 -44 -258 -68 -53 -23 -88 -69 -112 -146
-21 -70 -46 -231 -40 -258 3 -12 7 -35 9 -52 3 -16 8 -50 11 -75 15 -103 22
-307 24 -680 3 -651 12 -1085 26 -1172 2 -12 6 -61 10 -108 4 -47 9 -103 12
-125 3 -22 6 -53 8 -70 9 -78 26 -149 42 -174 8 -13 10 -21 5 -17 -16 9 7 -65
26 -86 8 -10 21 -18 28 -18 7 0 14 -6 17 -12 2 -8 23 -13 53 -13 60 0 168 53
414 203 438 266 731 524 1335 1177 132 143 324 346 427 451 104 105 188 196
188 203 0 27 -73 154 -128 222 -289 359 -932 690 -1551 800 -131 24 -445 34
-546 18z m1133 -1319 c18 -11 37 -32 43 -47 6 -16 14 -35 18 -43 5 -8 7 -40 7
-71 -1 -49 -6 -61 -39 -102 -21 -26 -41 -46 -45 -45 -4 1 -24 -2 -44 -6 -53
-11 -102 0 -139 31 -47 40 -60 78 -47 138 27 130 151 203 246 145z"/>
<path d="M4140 8186 c-58 -7 -148 -22 -200 -32 l-94 -18 110 -17 c61 -9 136
-24 165 -33 114 -36 219 -135 235 -223 5 -27 0 -59 -19 -117 -14 -45 -27 -90
-29 -101 -4 -27 -30 -30 -58 -5 -26 22 -32 24 -45 12 -6 -5 -39 -19 -75 -31
-36 -12 -95 -34 -131 -47 -75 -28 -93 -33 -169 -44 -30 -5 -71 -17 -92 -26
-37 -16 -44 -28 -51 -81 -5 -34 -12 -36 -53 -14 -42 23 -53 21 -155 -14 -36
-13 -89 -26 -119 -29 -29 -3 -55 -7 -56 -9 -2 -1 -5 -15 -8 -31 -3 -16 -9 -33
-13 -37 -5 -5 -35 5 -68 20 -33 16 -93 39 -133 52 -119 37 -162 105 -162 257
0 64 3 73 42 131 23 34 66 87 96 117 l54 53 -57 -19 c-79 -27 -268 -120 -340
-167 -173 -114 -253 -238 -216 -335 5 -13 69 -95 143 -183 210 -251 570 -691
843 -1030 410 -511 436 -541 674 -759 125 -114 287 -233 385 -283 49 -25 49
-25 75 -5 38 28 51 142 90 747 20 304 23 453 26 1058 2 398 8 671 16 765 18
197 15 240 -18 357 l-28 100 -55 13 c-77 19 -380 24 -510 8z"/>
<path d="M2153 7370 c-248 -112 -613 -591 -834 -1093 -180 -408 -214 -764 -89
-934 17 -22 53 -56 81 -73 49 -32 52 -33 192 -36 412 -10 1114 -103 1732 -228
466 -95 721 -156 958 -228 92 -28 170 -48 174 -44 4 4 8 33 8 65 0 68 26 29
-354 523 -146 189 -355 460 -465 603 -559 727 -951 1193 -1174 1398 -73 66
-74 67 -130 67 -35 0 -74 -8 -99 -20z m24 -380 c12 -8 32 -32 44 -54 30 -53
33 -183 6 -234 -10 -18 -17 -38 -16 -45 1 -6 0 -19 -3 -27 -19 -52 -53 -166
-68 -230 -10 -41 -25 -102 -35 -135 -9 -33 -20 -73 -25 -90 -15 -56 -48 -189
-70 -290 -38 -170 -97 -250 -197 -268 -41 -8 -114 14 -158 47 -111 85 -152
319 -104 588 38 215 81 331 180 489 117 187 227 268 358 264 36 -1 76 -7 88
-15z"/>
<path d="M7604 7041 c-51 -13 -170 -82 -267 -155 -153 -114 -353 -293 -787
-705 -175 -166 -466 -435 -613 -565 -43 -38 -75 -71 -73 -73 3 -3 15 2 28 11
28 20 48 21 48 2 0 -28 -97 -141 -389 -455 -84 -91 -158 -176 -164 -189 -21
-45 -36 -44 598 -72 860 -39 1271 -62 1395 -80 95 -14 382 -12 725 5 165 8
313 15 328 15 26 0 32 8 72 93 79 166 110 329 109 577 -1 337 -69 627 -216
920 -150 301 -338 502 -583 620 -104 51 -158 64 -211 51z"/>
<path d="M1248 5150 c-26 -4 -51 -11 -56 -14 -21 -13 -37 -175 -36 -366 3
-417 107 -865 293 -1255 159 -333 352 -567 582 -705 101 -61 131 -63 247 -15
127 52 166 78 296 204 236 226 496 438 921 749 198 145 293 218 369 286 37 32
79 68 94 80 35 27 52 43 52 50 0 3 21 26 46 52 33 35 42 49 32 55 -7 5 -23 2
-37 -7 -19 -13 -25 -14 -32 -3 -7 11 -9 10 -9 -5 0 -15 -5 -17 -26 -12 -14 4
-23 3 -20 -2 3 -5 -10 -16 -29 -25 -33 -16 -51 -11 -37 8 4 6 43 28 87 50 44
22 83 44 87 50 5 7 8 7 8 0 0 -5 4 -4 9 3 7 12 27 19 59 21 7 1 11 5 8 10 -4
5 14 19 39 31 40 19 45 25 45 55 0 19 -5 37 -11 41 -15 9 -119 6 -193 -6 -196
-31 -205 -29 -171 36 30 56 31 69 8 80 -17 7 -24 9 -63 13 -9 0 -16 10 -17 21
-1 16 6 21 38 26 23 4 38 11 36 18 -3 7 12 11 40 12 25 1 50 7 56 13 6 6 30
11 54 11 96 0 23 31 -198 85 -57 14 -188 45 -291 70 -441 107 -1082 215 -1578
266 -221 22 -623 34 -702 19z"/>
<path d="M7745 4719 c-445 -25 -654 -32 -1875 -54 -320 -6 -365 -9 -376 -26
-10 -17 16 -39 151 -127 136 -88 266 -185 450 -336 380 -311 646 -591 947
-996 63 -85 155 -200 203 -255 49 -55 153 -175 233 -267 l144 -168 57 40 c234
158 500 433 679 700 143 214 234 418 288 645 26 109 24 318 -5 419 -23 84 -73
191 -121 260 -48 70 -145 113 -355 156 -103 21 -186 23 -420 9z"/>
<path d="M5205 4433 c-11 -3 -66 -23 -122 -44 l-101 -40 -7 -77 c-20 -258 -65
-591 -105 -780 -12 -53 -32 -149 -45 -212 -13 -63 -40 -182 -59 -265 -20 -82
-42 -195 -51 -250 -15 -106 -55 -648 -55 -750 0 -70 21 -209 51 -347 l22 -97
48 -20 c105 -46 173 -56 379 -55 134 0 228 6 300 18 468 76 935 239 1332 465
195 111 315 198 428 311 114 114 145 169 136 239 -33 250 -487 901 -878 1261
-110 101 -110 99 -1 -25 180 -203 573 -718 573 -750 0 -3 -13 1 -28 9 -32 16
-183 176 -417 441 -311 352 -589 612 -819 766 -215 145 -462 230 -581 202z
m-314 -1543 c15 -264 -9 -812 -47 -1070 -25 -170 -54 -241 -85 -204 -31 37
-20 377 31 969 47 548 81 650 101 305z m1005 -278 c71 -52 186 -193 171 -209
-20 -19 -117 60 -184 151 -63 85 -58 109 13 58z"/>
<path d="M4489 4272 c-57 -37 -257 -169 -444 -293 -494 -328 -579 -384 -590
-388 -5 -2 -35 -21 -65 -41 -164 -111 -355 -230 -369 -230 -13 0 -221 -167
-362 -291 -149 -130 -519 -495 -519 -511 0 -5 14 -30 32 -56 114 -169 378
-411 616 -565 23 -15 47 -38 52 -51 9 -24 35 -40 50 -31 5 3 78 -30 162 -74
262 -137 484 -218 703 -257 123 -22 355 -22 459 0 89 20 215 67 258 97 15 11
43 52 63 93 69 145 106 413 135 986 16 327 48 745 70 935 49 416 47 361 18
479 -41 166 -96 266 -146 266 -10 0 -66 -31 -123 -68z m-609 -1228 c0 -28 -48
-118 -115 -214 -35 -52 -86 -131 -112 -175 -51 -87 -192 -240 -214 -233 -8 3
-15 12 -17 21 -5 23 45 134 82 183 194 259 247 327 294 377 55 57 82 71 82 41z"/>
<path d="M4510 580 c-2092 -59 -2900 -106 -3205 -185 -282 -74 40 -136 850
-165 696 -24 2919 -54 3425 -45 1110 18 2527 82 2930 131 216 26 300 44 333
72 24 21 22 27 -17 46 -80 38 -416 75 -861 95 -967 44 -2765 70 -3455 51z"/>
</g>
</svg>
